<svg viewBox="0 0 49 40" xmlns="http://www.w3.org/2000/svg" xmlns:xlink="http://www.w3.org/1999/xlink" width="49.000000" height="40.000000" fill="none" customFrame="#000000">
	<rect id="logo" width="49.000000" height="40.000000" x="0.000000" y="0.000000" transform="matrix(-1,0,0,1,49,0)" />
	<g id="Group">
		<path id="Vector" d="M39.7117 0L1.39195 0C0.588381 0 -0.0648415 0.685532 0.00514663 1.49097C0.845004 11.0806 9.72313 18.6267 20.5505 18.6267C31.378 18.6267 40.2561 11.0806 41.096 1.49097C41.1685 0.685532 40.5153 0 39.7117 0Z" fill="rgb(255,102,51)" fill-rule="nonzero" transform="matrix(-1,0,0,1,45.0775,21.1575)" />
	</g>
	<g id="Group">
		<path id="Vector" d="M17.5565 6.42002C17.1288 6.42002 16.7037 6.22713 16.4263 5.857C15.0266 4.00632 12.367 2.85421 9.48715 2.85421C6.60727 2.85421 3.94772 4.00371 2.54796 5.857C2.0736 6.48518 1.1819 6.60509 0.55978 6.12808C-0.064929 5.65108 -0.184168 4.75441 0.290196 4.12883C2.24468 1.5431 5.68187 0 9.48715 0C13.2924 0 16.7296 1.5431 18.6867 4.12883C19.1611 4.75702 19.0392 5.65108 18.4171 6.12808C18.1579 6.32618 17.8572 6.42002 17.5565 6.42002Z" fill="rgb(64.8125,64.8125,64.8125)" fill-rule="nonzero" transform="matrix(-1,0,0,1,49,0.388428)" />
	</g>
	<g id="Group">
		<path id="Vector" d="M17.5565 6.42002C17.1288 6.42002 16.7037 6.22713 16.4263 5.857C15.0266 4.00632 12.367 2.85421 9.48716 2.85421C6.60728 2.85421 3.94773 4.00371 2.54796 5.857C2.0736 6.48518 1.1819 6.60509 0.559781 6.12808C-0.0649277 5.65108 -0.184169 4.75441 0.290195 4.12883C2.24468 1.5431 5.68188 0 9.48716 0C13.2924 0 16.7296 1.5431 18.6867 4.12883C19.1611 4.75702 19.0392 5.65108 18.4171 6.12808C18.1579 6.32618 17.8572 6.42002 17.5565 6.42002Z" fill="rgb(64.8125,64.8125,64.8125)" fill-rule="nonzero" transform="matrix(-1,0,0,1,19.0301,0.388428)" />
	</g>
</svg>
